<?xml version="1.0" encoding="utf-8"?>
<!-- Generator: Adobe Illustrator 26.5.0, SVG Export Plug-In . SVG Version: 6.00 Build 0)  -->
<svg version="1.1" id="Ebene_1" xmlns="http://www.w3.org/2000/svg" xmlns:xlink="http://www.w3.org/1999/xlink" x="0px" y="0px"
	 width="20px" height="34px" viewBox="0 0 20 34" style="enable-background:new 0 0 20 34;" xml:space="preserve">
<style type="text/css">
	.st0{fill:#FFFFFF;}
	.st1{fill:#010202;}
</style>
<path class="st0" d="M16.58,19c-1.89,0-3.42-1.53-3.42-3.42c0-1.89,1.53-3.42,3.42-3.42c1.89,0,3.42,1.53,3.42,3.42
	C20,17.47,18.47,19,16.58,19z"/>
<path class="st1" d="M16.58,12.96c-1.44,0-2.62,1.17-2.61,2.62c0,1.44,1.17,2.62,2.62,2.61c1.44,0,2.61-1.17,2.61-2.62
	C19.19,14.14,18.02,12.97,16.58,12.96z"/>
<path class="st0" d="M6.96,20.09c-0.01-0.19-0.01-0.39,0.01-0.58c-0.01-1.61-0.58-3.17-1.62-4.4C4.16,13.81,2.36,13.15,0,13.15v-0.8
	c2.6,0,4.6,0.75,5.95,2.22c0.78,0.87,1.32,1.92,1.58,3.05c0.16-0.28,0.34-0.54,0.56-0.77c0.97-1.06,2.46-1.59,4.44-1.59v0.8
	c-1.74,0-3.03,0.45-3.84,1.33c-0.53,0.6-0.85,1.35-0.91,2.14c0.01,0.33-0.01,0.53-0.01,0.57L6.96,20.09L6.96,20.09z"/>
</svg>
