<?xml version="1.0" encoding="utf-8"?>
<!-- Generator: Adobe Illustrator 26.5.0, SVG Export Plug-In . SVG Version: 6.00 Build 0)  -->
<svg version="1.1" id="Ebene_1" xmlns="http://www.w3.org/2000/svg" xmlns:xlink="http://www.w3.org/1999/xlink" x="0px" y="0px"
	 width="20px" height="34px" viewBox="0 0 20 34" style="enable-background:new 0 0 20 34;" xml:space="preserve">
<style type="text/css">
	.st0{fill:#FFFFFF;}
</style>
<g id="Interface-Essential__x2F__Resize__x2F__expand-diagonal">
	<g id="Group_763">
		<g id="expand-diagonal">
			<g id="Shape_3182">
				<path class="st0" d="M2.5,25c-0.13,0-0.26-0.05-0.35-0.15c-0.2-0.2-0.2-0.51,0-0.71l15-15c0.2-0.2,0.51-0.2,0.71,0
					s0.2,0.51,0,0.71l-15,15C2.76,24.95,2.63,25,2.5,25z"/>
			</g>
			<g id="Shape_3183">
				<path class="st0" d="M17.5,14.5c-0.28,0-0.5-0.22-0.5-0.5v-4h-4c-0.28,0-0.5-0.22-0.5-0.5S12.72,9,13,9h4.5
					C17.78,9,18,9.22,18,9.5V14C18,14.28,17.78,14.5,17.5,14.5z"/>
			</g>
			<g id="Shape_3184">
				<path class="st0" d="M7,25H2.5C2.22,25,2,24.78,2,24.5V20c0-0.28,0.22-0.5,0.5-0.5S3,19.72,3,20v4h4c0.28,0,0.5,0.22,0.5,0.5
					S7.28,25,7,25z"/>
			</g>
		</g>
	</g>
</g>
</svg>
