<svg xmlns="http://www.w3.org/2000/svg" width="40" height="40" viewBox="0 0 40 40">
  <path id="Form_1" data-name="Form 1" d="M29.178,17.249v5.68a1.706,1.706,0,0,1-1.7,1.7H12.7a1.706,1.706,0,0,1-1.7-1.7v-5.68a1.706,1.706,0,0,1,1.7-1.7H27.473A1.706,1.706,0,0,1,29.178,17.249Zm-17.041,5.68a0.569,0.569,0,0,0,.568.568H27.473a0.569,0.569,0,0,0,.568-0.568v-5.68a0.569,0.569,0,0,0-.568-0.568H12.7a0.569,0.569,0,0,0-.568.568v5.68Zm17.041,3.976v1.136a1.137,1.137,0,0,1-1.136,1.136H12.136A1.137,1.137,0,0,1,11,28.041V26.905a1.137,1.137,0,0,1,1.136-1.136H28.041A1.137,1.137,0,0,1,29.178,26.905ZM12.136,28.041H28.041V26.905H12.136v1.136ZM29.178,12.136v1.136a1.137,1.137,0,0,1-1.136,1.136H12.136A1.137,1.137,0,0,1,11,13.272V12.136A1.137,1.137,0,0,1,12.136,11H28.041A1.137,1.137,0,0,1,29.178,12.136ZM12.136,13.272H28.041V12.136H12.136v1.136Z"/>
</svg>
