<svg version="1.1" id="Ebene_1" xmlns="http://www.w3.org/2000/svg" xmlns:xlink="http://www.w3.org/1999/xlink" x="0px" y="0px"
	 width="275px" height="40px" viewBox="0 0 275 40" style="enable-background:new 0 0 275 40;" xml:space="preserve">
<path id="Semplice_is_activated" d="M66.7,15.1c-0.4-1.9-1.9-4.3-6-4.3c-3.2,0-5.8,2.4-5.8,5.2c0,2.5,1.7,4.2,4.3,4.8l2.4,0.5
	c1.5,0.3,2.3,1.2,2.3,2.3c0,1.3-1.1,2.4-3.1,2.4c-2,0.1-3.7-1.4-3.9-3.4l-2.7,0.8c0.3,2.4,2.3,5.2,6.6,5.2c3.9,0,6-2.5,6-5.2
	c0-2.4-1.6-4.3-4.6-4.9l-2.4-0.5c-1.1-0.1-2-1.1-2-2.2c0.1-1.5,1.4-2.6,2.9-2.5c0,0,0,0,0,0c1.6-0.1,3.1,1,3.3,2.6L66.7,15.1z
	 M70.8,21c0.1-1.5,1.4-2.6,2.9-2.6c1.4-0.1,2.7,0.9,2.9,2.3c0,0.1,0,0.2,0,0.2H70.8z M76.9,24c-0.4,1.3-1.6,2.1-2.9,2
	c-1.7,0-3.1-1.3-3.2-3h8.5c0.1-0.3,0.1-0.6,0.1-0.9c0-3.7-2.1-6.1-5.7-6.1c-3.2,0.1-5.8,2.8-5.7,6c0,0,0,0.1,0,0.1
	c-0.2,3.3,2.3,6.1,5.5,6.3c0.2,0,0.3,0,0.5,0c2.4,0.1,4.6-1.4,5.3-3.7L76.9,24z M84.2,28.1v-6.9c-0.1-1.3,0.9-2.5,2.2-2.6
	c0.1,0,0.2,0,0.2,0c1.2-0.1,2.2,0.8,2.3,2c0,0.1,0,0.3,0,0.4v7.1h2.7v-6.9c-0.1-1.3,0.9-2.5,2.3-2.6c0.1,0,0.1,0,0.2,0
	c1.2-0.1,2.2,0.8,2.3,2c0,0.1,0,0.3,0,0.4v7.1H99v-7.6c0-3.1-2-4.4-4.1-4.4c-1.6-0.1-3,0.7-3.8,2.1c-0.6-1.3-2-2.1-3.5-2.1
	c-1.4,0-2.7,0.7-3.5,1.8v-1.5h-2.7v11.7L84.2,28.1L84.2,28.1z M104.5,32.7v-5.9c0.9,1.1,2.2,1.7,3.6,1.6c3.4,0,5.5-2.6,5.5-6.1
	c0-3.5-1.9-6.1-5.4-6.1c-1.5-0.1-2.9,0.6-3.7,1.8v-1.6h-2.7v16.3L104.5,32.7L104.5,32.7z M110.8,22.3c0,2.2-1.3,3.7-3.1,3.7
	c-1.8,0-3.1-1.4-3.1-3.7c0-2.2,1.3-3.6,3.1-3.6C109.5,18.7,110.8,20.1,110.8,22.3z M118.5,28.1V10.8h-2.8v17.4H118.5z M124.2,28.1
	V16.4h-2.8v11.7H124.2z M121,12.3c0,1,0.8,1.8,1.8,1.8c1,0,1.8-0.8,1.8-1.8c0-1-0.8-1.8-1.8-1.9S121,11.3,121,12.3
	C121,12.3,121,12.3,121,12.3L121,12.3z M132.3,18.7c1.4-0.1,2.6,0.9,2.8,2.2l2.5-0.9c-0.7-2.4-2.9-4-5.4-3.8c-3.3,0-6,2.6-6,5.9
	c0,0.1,0,0.2,0,0.3c-0.1,3.3,2.5,6.1,5.8,6.2c0.1,0,0.2,0,0.3,0c2.4,0.1,4.7-1.5,5.4-3.8l-2.4-0.9c-0.4,1.3-1.6,2.2-2.9,2.2
	c-1.8,0-3.3-1.3-3.3-3.7S130.6,18.7,132.3,18.7L132.3,18.7z M141.4,21c0.1-1.5,1.4-2.6,2.9-2.6c1.4-0.1,2.7,0.9,2.9,2.3
	c0,0.1,0,0.2,0,0.2H141.4z M147.5,24.1c-0.4,1.3-1.6,2.1-2.9,2c-1.7,0-3.1-1.3-3.2-3h8.5c0.1-0.3,0.1-0.6,0.1-0.9
	c0-3.7-2.1-6.1-5.7-6.1c-3.2,0.1-5.8,2.8-5.7,6c0,0,0,0.1,0,0.1c-0.2,3.3,2.3,6.1,5.5,6.3c0.2,0,0.3,0,0.5,0
	c2.4,0.1,4.6-1.4,5.3-3.7L147.5,24.1z M160.1,28.1V16.4h-2.8v11.7H160.1z M157,12.3c0,1,0.8,1.8,1.8,1.8c1,0,1.8-0.8,1.8-1.8
	c0-1-0.8-1.8-1.8-1.9S157,11.3,157,12.3C157,12.3,157,12.3,157,12.3L157,12.3z M162.1,25c0.1,1.3,1.4,3.5,4.8,3.5c3,0,4.4-2,4.4-3.7
	c0-1.7-1.2-3.1-3.4-3.6l-1.8-0.4c-0.6-0.1-1.1-0.6-1.2-1.2c0.1-0.8,0.8-1.4,1.7-1.3c0,0,0,0,0,0c1.1-0.1,2,0.7,2.2,1.8l2.4-0.7
	c-0.2-1.2-1.2-3.3-4.5-3.3c-2.2-0.1-4.1,1.5-4.3,3.8c0,1.6,1.1,3,3.1,3.4l1.7,0.4c0.7,0,1.3,0.6,1.4,1.3c-0.1,0.8-0.8,1.4-1.6,1.4
	c0,0-0.1,0-0.1,0c-1.2,0.1-2.3-0.8-2.4-2c0,0,0,0,0,0L162.1,25z M178.1,25c0.1,2,1.8,3.6,3.8,3.5c0.1,0,0.1,0,0.2,0
	c1.4,0.1,2.8-0.6,3.6-1.8c0,0.5,0,1,0.1,1.5h2.6c-0.1-0.6-0.2-1.2-0.1-1.9v-5.8c0-2.3-1.4-4.4-5-4.4c-2.9,0-4.7,1.8-4.9,3.8l2.5,0.6
	c0.1-1.2,1.1-2.2,2.4-2.1c0,0,0,0,0,0c1.5,0,2.2,0.8,2.2,1.8c0,0.5-0.3,0.8-0.8,0.8c0,0,0,0-0.1,0l-3,0.5
	C179.7,21.7,178.1,22.9,178.1,25L178.1,25z M182.6,26.3c-0.8,0.1-1.6-0.5-1.7-1.4c0,0,0-0.1,0-0.1c0-0.9,0.7-1.6,1.6-1.6l3-0.5v0.5
	C185.5,25.6,184.2,26.3,182.6,26.3L182.6,26.3z M196.1,18.7c1.4-0.1,2.6,0.9,2.8,2.2l2.5-0.9c-0.7-2.4-2.9-4-5.4-3.8
	c-3.3,0-6,2.6-6,5.9c0,0.1,0,0.2,0,0.3c-0.1,3.3,2.5,6.1,5.8,6.2c0.1,0,0.2,0,0.3,0c2.4,0.1,4.7-1.5,5.4-3.8l-2.4-0.9
	c-0.4,1.3-1.6,2.2-2.9,2.2c-1.8,0-3.3-1.3-3.3-3.7S194.4,18.7,196.1,18.7z M206.9,12.9h-2.5v1.8c0.1,0.9-0.6,1.7-1.5,1.8
	c-0.1,0-0.2,0-0.3,0H202v2.5h2.2v5.9c-0.1,1.8,1.2,3.3,2.9,3.5c0.2,0,0.4,0,0.6,0c0.6,0,1.2-0.1,1.7-0.3v-2.3
	c-0.3,0.1-0.6,0.1-1,0.1c-0.7,0.1-1.4-0.3-1.5-1c0-0.2,0-0.3,0-0.5v-5.4h2.4v-2.5h-2.4L206.9,12.9L206.9,12.9z M214.4,28.1V16.4
	h-2.8v11.7L214.4,28.1L214.4,28.1z M211.2,12.3c0,1,0.8,1.8,1.8,1.8c1,0,1.8-0.8,1.8-1.8c0-1-0.8-1.8-1.8-1.8S211.2,11.3,211.2,12.3
	L211.2,12.3z M227.9,16.4H225l-3,8.4l-3.1-8.4h-3.1l4.8,11.7h2.8L227.9,16.4z M228.6,25c0.1,2,1.8,3.6,3.8,3.5c0.1,0,0.1,0,0.2,0
	c1.4,0.1,2.8-0.6,3.6-1.8c0,0.5,0,1,0.1,1.5h2.6c-0.1-0.6-0.2-1.2-0.1-1.9v-5.8c0-2.3-1.4-4.4-5-4.4c-2.9,0-4.7,1.8-4.9,3.8l2.5,0.6
	c0.1-1.2,1.1-2.2,2.4-2.1c0,0,0,0,0,0c1.5,0,2.2,0.8,2.2,1.8c0,0.5-0.3,0.8-0.8,0.8c0,0,0,0-0.1,0l-3,0.5
	C230.1,21.7,228.6,22.9,228.6,25L228.6,25z M233.1,26.3c-0.8,0.1-1.6-0.5-1.7-1.4c0,0,0-0.1,0-0.1c0-0.9,0.7-1.6,1.6-1.6l3-0.5v0.5
	C236,25.6,234.6,26.3,233.1,26.3L233.1,26.3z M244.9,12.9h-2.5v1.8c0.1,0.9-0.6,1.7-1.5,1.8c-0.1,0-0.2,0-0.3,0H240v2.5h2.2v5.9
	c-0.1,1.8,1.2,3.3,2.9,3.5c0.2,0,0.4,0,0.6,0c0.6,0,1.2-0.1,1.7-0.3v-2.3c-0.3,0.1-0.6,0.1-1,0.1c-0.7,0.1-1.4-0.3-1.5-1
	c0-0.2,0-0.3,0-0.5v-5.4h2.4v-2.5h-2.4L244.9,12.9L244.9,12.9z M251.4,21c0.1-1.5,1.4-2.6,2.9-2.6c1.4-0.1,2.7,0.9,2.9,2.3
	c0,0.1,0,0.2,0,0.2H251.4z M257.5,24.1c-0.4,1.3-1.6,2.1-2.9,2c-1.7,0-3.1-1.3-3.2-3h8.5c0.1-0.3,0.1-0.6,0.1-0.9
	c0-3.7-2.1-6.1-5.7-6.1c-3.2,0.1-5.8,2.8-5.7,6c0,0,0,0.1,0,0.1c-0.2,3.3,2.3,6.1,5.5,6.3c0.2,0,0.3,0,0.5,0
	c2.4,0.1,4.6-1.4,5.3-3.7L257.5,24.1z M263.9,22.3c0-2.2,1.3-3.6,3.2-3.6s3.1,1.4,3.1,3.6s-1.3,3.7-3.1,3.7
	C265.2,26,263.9,24.5,263.9,22.3L263.9,22.3z M272.8,10.8h-2.7v7.1c-0.4-0.7-1.4-1.7-3.4-1.7c-3.3,0-5.6,2.8-5.6,6.1
	c0,3.5,2.3,6.2,5.6,6.2c1.4,0.1,2.7-0.6,3.4-1.8c0,0.5,0,1,0.1,1.5h2.7c-0.1-0.7-0.1-1.4-0.1-2.1L272.8,10.8L272.8,10.8z"/>
<path id="adler" d="M25.7,7.3l2.4-3.4c0,0-2.4-1-2.6,1.2c0,0.7-0.5,1.2-1.2,1.2l0,0c-0.7,0-1-0.5-1-1s0.5-1,1.2-1h0.2
	c0.2-0.3,0-0.9-0.5-1c-0.3-0.2-0.5,0-0.9,0c0-0.5-0.2-1-0.9-1.2c-0.5,0.2-0.9,0.7-0.9,1.2c-0.3-0.2-1-0.2-1.2,0.2
	c-0.2,0.2-0.2,0.5,0,0.7h0.2c0.7,0,1.2,0.3,1.2,1s-0.5,1-1.2,1c-0.7,0-1.2-0.5-1.2-1.2l0,0c0-0.9-0.9-1.5-1.9-1.5
	c-0.3,0-0.5,0-0.7,0.2l2.6,3.6L25.7,7.3L25.7,7.3z M40.8,18.8c1.9,0,3.6-1.4,3.8-3.1c-2.6,0.5-5.3,0-7.4-1.5c1.7,0.5,3.6,0.5,5.3,0
	c1.4-0.7,2.2-1.9,2.1-3.3c-5.5,1.5-7.4-0.2-7.4-0.2c1.4,0.2,2.7,0,4.1-0.5c1.4-0.5,2.1-2.1,1.4-3.3c-4.1,1.7-6,0.9-6,0.9
	c1.4-0.2,2.7-0.9,3.3-2.1c0.5-0.9,0.3-2.1-0.5-2.7c-2.1,2.6-5.3,2.2-7.5,3.4c-1.5,0.7-0.2,2.1-0.2,2.1c1.4-0.5,2.7,0.9,2.7,2.9
	c0,2.6-2.6,4.6-5.5,4.6c-0.2,0-0.2,0-0.3,0c-3.3,0.2-4.6-1-4.6-3.8c0-1.2,0.3-1.5,1.2-1.5c0.5,0,1,0.2,1.4,0.7
	c0.3-0.5,0.5-1,0.5-1.7c0-0.9-0.9-1.7-1.9-1.7c-0.2,0-0.3,0-0.5,0h-6.2c-0.2,0.7,0.3,1.4,1.2,1.7c0,0-0.3,2.1-0.7,4.3
	c-0.2,1.2-1.5,2.2-3.1,2.1c-2.7,0.3-5.3-1.7-5.7-4.3v-0.2c0-1.7,1-3.4,2.7-2.9c0.7-0.5,0.9-1.4,0.2-1.9L13,6.6
	c-1.7-1-5.8-0.7-7.7-3.4c-0.9,0.7-1,1.7-0.5,2.7C5.3,7.1,6.7,7.8,8.1,8c0,0-1.9,0.9-6-0.9c-0.7,1.2,0,2.6,1.4,3.3
	c1.2,0.5,2.7,0.9,4.1,0.5c0,0-2.1,1.7-7.4,0.2c-0.2,1.4,0.7,2.6,2.1,3.3c1.7,0.5,3.6,0.5,5.3,0c-2.2,1.4-5,2.1-7.5,1.5
	C0.2,17.6,1.7,19,3.8,19c1.9,0,3.9-0.5,5.5-1.5c0,0-0.7,2.4-7.7,3.3c1.4,1.7,3.8,2.4,6,1.7C9.4,21.9,11,21,12,19.7c0,0-1.2,3.1-7,5
	c0,0,1.9,1.7,5.8,0.3c2.1-0.9,3.8-2.2,4.8-4.1c-0.5,2.1-1.7,3.8-3.3,5.1c0.5,0.2,1.2,0,1.7,0c2.6-0.7,4.5-2.6,5-5
	c0.5,0.5,0.7,1.2,0.7,2.1C19,25,15.4,27,15.4,27l0.5,0.7c-0.9,0.5-2.2,1-2.7,1.4c-1-0.5-2.2-1.2-2.6-1.4c-0.9-0.5-2.1-0.3-2.6,0.5
	c-0.2,0.3-0.3,0.7-0.3,1c0.7-0.7,1.7-0.9,2.6-0.3c0.2,0,1,0.5,1.7,0.9l-0.9,0.3c-0.9,0.3-1.2,1.4-0.9,2.2c0.2,0.3,0.5,0.5,0.9,0.7
	c-0.3-0.7,0-1.7,0.9-2.1l0,0c0,0,0.5-0.3,1.2-0.5c0.3,0.2,0.9,0.5,1,0.5c0.9,0.2,1.2,1.2,0.9,1.9l0,0c1-0.3,1.4-1.4,1-2.1
	c-0.2-0.3-0.5-0.5-0.9-0.7c0,0-0.5-0.3-0.7-0.3l2.1-1l0.5,0.7l3.1-1.5c0,0.3,0,0.7,0,1c-0.3,2.2-2.1,4.1-4.3,5.3
	c0.3,0.9,1.2,1.4,2.2,1.2c1.4,0,2.4-1.4,2.9-2.6c-0.7,2.1-0.5,3.8,1.2,5.1c1.7-1.4,1.9-3.1,1.2-5.1c0.5,1.2,1.5,2.6,2.9,2.6
	c1,0,1.9-0.5,2.2-1.2c-2.2-1-3.9-3.1-4.3-5.3c0-0.3,0-0.7,0-1l3.1,1.5l0.5-0.5l2.1,1c-0.2,0.2-0.7,0.3-0.7,0.3
	c-0.9,0.5-1.2,1.4-0.7,2.2c0.2,0.3,0.5,0.5,0.9,0.7c-0.5-0.7,0-1.7,0.9-2.1l0,0c0.2,0,0.7-0.3,1-0.5c0.7,0.3,1,0.5,1.2,0.5
	c0.9,0.3,1.4,1.2,0.9,2.1l0,0c0.9-0.3,1.4-1.4,0.9-2.2c-0.2-0.3-0.5-0.5-0.9-0.7l-0.9-0.7c0.7-0.3,1.5-0.7,1.7-0.9
	c0.9-0.5,1.9-0.3,2.6,0.3c0-0.9-0.9-1.7-1.9-1.7c-0.3,0-0.9,0-1,0.3c-0.3,0.2-1.5,0.9-2.6,1.4c-0.5-0.2-1.9-0.9-2.7-1.4l0.5-0.7
	c0,0-3.4-2.1-3.8-3.8c-0.2-0.7,0-1.4,0.7-2.1c0.3,2.4,2.4,4.3,5,5c0.5,0.2,1,0.2,1.5,0.2c-1.7-1.4-2.7-3.3-3.3-5.1
	c1,1.7,2.6,3.3,4.8,4.1c3.9,1.4,5.8-0.3,5.8-0.3c-6-1.9-7-5-7-5c1.2,1.4,2.7,2.2,4.5,2.7c2.2,0.7,4.6,0,6-1.7
	c-7.2-1.2-8.1-3.6-8.1-3.6C36.9,18.5,38.9,19,40.8,18.8z"/>
</svg>
