<svg version="1.1" id="Ebene_1" xmlns="http://www.w3.org/2000/svg" xmlns:xlink="http://www.w3.org/1999/xlink" x="0px" y="0px"
	 viewBox="0 0 48 48" style="enable-background:new 0 0 48 48;" xml:space="preserve">
<g id="Interface-Essential__x2F__Layouts__x2F__layout-array">
	<g id="Group_521">
		<g id="layout-array">
			<g id="Shape_2561">
				<path d="M44,41v4c0,1.7-1.3,3-3,3H7c-1.7,0-3-1.3-3-3v-4c0-1.7,1.3-3,3-3h34C42.7,38,44,39.3,44,41z M6,45c0,0.6,0.4,1,1,1h34
					c0.6,0,1-0.4,1-1v-4c0-0.6-0.4-1-1-1H7c-0.6,0-1,0.4-1,1V45z"/>
			</g>
			<g id="Shape_2562">
				<path d="M44,3v4c0,1.7-1.3,3-3,3H7c-1.7,0-3-1.3-3-3V3c0-1.7,1.3-3,3-3l34,0C42.7,0,44,1.3,44,3z M6,7c0,0.6,0.4,1,1,1h34
					c0.6,0,1-0.4,1-1V3c0-0.6-0.4-1-1-1H7C6.4,2,6,2.4,6,3V7z"/>
			</g>
			<g id="Shape_2563">
				<path d="M44,15v18c0,1.7-1.3,3-3,3H7c-1.7,0-3-1.3-3-3V15c0-1.7,1.3-3,3-3h34C42.7,12,44,13.3,44,15z M6,33c0,0.6,0.4,1,1,1h34
					c0.6,0,1-0.4,1-1V15c0-0.6-0.4-1-1-1H7c-0.6,0-1,0.4-1,1V33z"/>
			</g>
		</g>
	</g>
</g>
</svg>
